<?xml version="1.0" encoding="utf-8"?>
<!-- Generator: Adobe Illustrator 26.0.3, SVG Export Plug-In . SVG Version: 6.00 Build 0)  -->
<svg version="1.1" id="Layer_1" xmlns="http://www.w3.org/2000/svg" xmlns:xlink="http://www.w3.org/1999/xlink" x="0px" y="0px"
	 viewBox="0 0 37.1 37.1" style="enable-background:new 0 0 37.1 37.1;" xml:space="preserve">
<style type="text/css">
	.st0{fill:none;stroke:#000000;stroke-miterlimit:10;}
</style>
<path class="st0" d="M8.2,11.4l3.2-3.1C11.7,8.6,22.8,19.7,28,24.9c0.4,0.3,0.7,0.7,1,1.2c0.6,1,0.3,2.4-0.7,3
	c-0.7,0.4-1.5,0.4-2.2,0c-0.3-0.2-0.6-0.4-0.9-0.7C19.7,22.9,8.4,11.7,8.2,11.4z"/>
<path class="st0" d="M12.9,3.2l-9.7,9.7c-0.8-0.8-1.5-1.6-2.1-2.5C0.1,8.7,0.4,6.5,1.8,5.1c0.9-1,1.9-2,2.9-3C6.9,0,9.5-0.1,11.7,2
	C12.2,2.4,12.9,3.2,12.9,3.2z"/>
<path class="st0" d="M5,14.6l1.5-1.6C7,13.4,7.3,13.7,7.6,14l15.7,15.6c0.3,0.3,0.8,0.8,0.9,1.1c0.1,0.4,0,0.9-0.3,1.2
	c-0.3,0.2-0.7,0.3-1.1,0.3c-0.3,0-0.7-0.5-0.9-0.7L5.5,15.1L5,14.6z"/>
<path class="st0" d="M12.9,6.8l1.5-1.6c0.4,0.4,0.8,0.8,1.1,1.1l15.6,15.6c0.3,0.3,0.8,0.8,0.9,1.1c0.1,0.4,0,0.9-0.3,1.2
	c-0.3,0.2-0.7,0.3-1.1,0.3c-0.3,0-0.7-0.5-0.9-0.7c-5.5-5.5-11-11-16.4-16.4C13.2,7.1,12.9,6.8,12.9,6.8z"/>
<path class="st0" d="M25.7,33.8c0.2-1.3,1.2-2.2,2.5-2.2c1.9-0.2,2.9-1.6,3.3-3.9c0.1-0.7,0.6-1.2,1.2-1.5l0.9-0.4l2.7,10.7
	L25.7,33.8z"/>
</svg>
