<?xml version="1.0" encoding="utf-8"?>
<!-- Generator: Adobe Illustrator 26.0.3, SVG Export Plug-In . SVG Version: 6.00 Build 0)  -->
<svg version="1.1" id="Layer_1" xmlns="http://www.w3.org/2000/svg" xmlns:xlink="http://www.w3.org/1999/xlink" x="0px" y="0px"
	 viewBox="0 0 37 31.2" style="enable-background:new 0 0 37 31.2;" xml:space="preserve">
<style type="text/css">
	.st0{fill:none;stroke:#000000;stroke-miterlimit:10;}
</style>
<path class="st0" d="M16.1,24.1h4.7c1.6,0,2.8,1.3,2.8,2.8l0,0c0,1.6-1.3,2.8-2.8,2.8h-4.7c-1.6,0-2.8-1.3-2.8-2.8l0,0
	C13.3,25.4,14.5,24.1,16.1,24.1z"/>
<path class="st0" d="M3.8,28.1h29.3c0.7,0,1.3,0.6,1.3,1.3v0c0,0.7-0.6,1.3-1.3,1.3H3.8c-0.7,0-1.3-0.6-1.3-1.3v0
	C2.5,28.7,3.1,28.1,3.8,28.1z"/>
<path class="st0" d="M36.5,2.6c0-1.2-1-2.1-2.1-2.1l0,0H2.6c-1.2,0-2.1,0.9-2.2,2.1c0,0,0,0,0,0v19.6c0,1.2,1,2.1,2.1,2.1h0h31.8
	c1.2,0,2.1-1,2.1-2.1l0,0V2.6z M34.8,20.7c0,1.2-1,2.1-2.1,2.1l0,0h-28c-1.2,0-2.1-1-2.1-2.1l0,0V4.5c0-1.2,1-2.1,2.1-2.1h28
	c1.2,0,2.1,1,2.1,2.1v0L34.8,20.7z"/>
</svg>
